<svg width="58" height="58" viewBox="0 0 58 58" fill="none" xmlns="http://www.w3.org/2000/svg">
<path d="M29 3.625C18.9939 3.625 10.875 10.9328 10.875 19.9375C10.875 34.4375 29 54.375 29 54.375C29 54.375 47.125 34.4375 47.125 19.9375C47.125 10.9328 39.0061 3.625 29 3.625ZM29 29C27.5661 29 26.1644 28.5748 24.9721 27.7782C23.7799 26.9815 22.8506 25.8492 22.3019 24.5245C21.7531 23.1997 21.6096 21.742 21.8893 20.3356C22.169 18.9292 22.8595 17.6374 23.8735 16.6235C24.8874 15.6095 26.1792 14.919 27.5856 14.6393C28.992 14.3596 30.4497 14.5031 31.7745 15.0519C33.0992 15.6006 34.2315 16.5299 35.0282 17.7221C35.8248 18.9144 36.25 20.3161 36.25 21.75C36.2479 23.6722 35.4834 25.515 34.1242 26.8742C32.765 28.2334 30.9222 28.9979 29 29Z" fill="white"/>
</svg>
